<svg width="81" height="48" viewBox="0 0 81 48" fill="none" xmlns="http://www.w3.org/2000/svg">
<path d="M12.286 1.60479H22.9635L34.7377 34.4758H24.7699L22.7377 28.25H12.2215L10.028 34.4758H0.382812L12.286 1.60479ZM14.5118 21.0887H20.3183L17.4796 10.9274L14.5118 21.0887ZM33.5118 1.57253H42.6731V26.5725H55.9957V34.4758H33.5118V1.57253ZM62.4473 23.0241C62.4796 26.4758 64.4473 27.8306 67.2538 27.8306C69.3506 27.8306 71.5118 26.9919 71.5118 25.0241C71.5118 23.2177 69.8989 22.7661 67.2538 22.0241C59.2538 19.7016 54.2215 17.6693 54.2215 11.1532C54.2215 4.50802 59.8989 0.79834 66.7054 0.79834C73.9635 0.79834 79.4796 4.08866 79.5441 12.1854H70.6731C70.5441 9.05641 68.8344 8.0564 66.4151 8.0564C64.2538 8.0564 63.0925 9.02415 63.0925 10.6048C63.0925 12.0241 63.6086 12.2822 70.2215 14.1532C75.4473 15.6371 80.3828 18.1209 80.3828 24.4758C80.3828 30.7983 75.4473 35.1532 66.8344 35.1532C59.0602 35.1532 53.3828 31.0887 53.3828 23.0241H62.4473ZM3.44733 39.508H6.02797L8.86668 47.4435H6.44733L5.96346 45.9274H3.41507L2.89894 47.4435H0.576361L3.44733 39.508ZM3.99572 44.2177H5.38281L4.70539 41.7661L3.99572 44.2177ZM9.57636 44.6693C9.57636 46.6048 10.9635 47.6048 12.8344 47.6048C14.8989 47.6048 16.0925 46.5403 16.0925 45.0241C16.0925 43.508 14.8989 42.8951 13.6409 42.5403C12.028 42.0887 11.9312 42.0242 11.9312 41.6693C11.9312 41.2822 12.2215 41.0564 12.7377 41.0564C13.3183 41.0564 13.7377 41.2822 13.7699 42.0564H15.8989C15.8667 40.0887 14.5441 39.3145 12.8022 39.3145C11.157 39.3145 9.80217 40.2177 9.80217 41.8306C9.80217 43.4112 11.028 43.8951 12.9635 44.4435C13.6086 44.637 13.9957 44.7338 13.9957 45.1532C13.9957 45.6371 13.4796 45.8306 12.9635 45.8306C12.286 45.8306 11.8022 45.508 11.8022 44.6693H9.57636ZM17.0925 44.6693C17.0925 46.6048 18.4796 47.6048 20.3506 47.6048C22.4151 47.6048 23.6086 46.5403 23.6086 45.0241C23.6086 43.508 22.4151 42.8951 21.157 42.5403C19.5441 42.0887 19.4473 42.0242 19.4473 41.6693C19.4473 41.2822 19.7376 41.0564 20.2538 41.0564C20.8344 41.0564 21.2538 41.2822 21.286 42.0564H23.4151C23.3828 40.0887 22.0602 39.3145 20.3183 39.3145C18.6731 39.3145 17.3183 40.2177 17.3183 41.8306C17.3183 43.4112 18.5441 43.8951 20.4796 44.4435C21.1247 44.637 21.5118 44.7338 21.5118 45.1532C21.5118 45.6371 20.9957 45.8306 20.4796 45.8306C19.8022 45.8306 19.3183 45.508 19.3183 44.6693H17.0925ZM28.5441 39.3145C30.9635 39.3145 32.4473 41.0887 32.4473 43.508C32.4473 45.8951 30.9635 47.6371 28.5441 47.6371C26.1247 47.6371 24.6409 45.9596 24.6409 43.508C24.6731 41.0564 26.157 39.3145 28.5441 39.3145ZM28.5441 45.7661C29.7054 45.7661 30.1893 44.7661 30.1893 43.508C30.1893 42.1854 29.6731 41.2177 28.5441 41.2177C27.4151 41.2177 26.8989 42.2177 26.8989 43.5403C26.8989 44.7983 27.4151 45.7661 28.5441 45.7661ZM38.5441 44.2177C38.4151 45.1209 37.9635 45.6693 37.286 45.6693C36.1247 45.6693 35.6731 44.7016 35.6731 43.508C35.6731 42.1854 36.157 41.2177 37.2215 41.2177C37.8989 41.2177 38.4151 41.7661 38.4796 42.508H40.6409C40.4796 40.4435 39.028 39.3467 37.2215 39.3467C34.8667 39.3467 33.4796 41.0564 33.4796 43.508C33.4796 45.9596 34.8344 47.6048 37.2215 47.6048C39.2538 47.6048 40.5118 46.379 40.7054 44.2177H38.5441ZM42.0602 47.4435H44.3506V39.4758H42.0602V47.4435ZM48.286 39.508H50.6409L53.2215 47.4435H51.028L50.5764 45.9274H48.2538L47.7699 47.4435H45.6409L48.286 39.508ZM48.7699 44.2177H50.028L49.4151 41.7661L48.7699 44.2177ZM55.286 47.4435H57.5118V41.379H59.3828V39.4758H52.9957V41.379H55.286V47.4435ZM60.3828 47.4435H62.6731V39.4758H60.3828V47.4435ZM68.028 39.3145C70.4473 39.3145 71.9312 41.0887 71.9312 43.508C71.9312 45.8951 70.4473 47.6371 68.028 47.6371C65.6086 47.6371 64.1247 45.9596 64.1247 43.508C64.1247 41.0564 65.6086 39.3145 68.028 39.3145ZM68.028 45.7661C69.1893 45.7661 69.6731 44.7661 69.6731 43.508C69.6731 42.1854 69.157 41.2177 68.028 41.2177C66.8989 41.2177 66.3828 42.2177 66.3828 43.5403C66.3828 44.7983 66.8989 45.7661 68.028 45.7661ZM79.7054 39.508H77.7054V44.0887L75.8667 39.508H73.286V47.4435H75.286V42.7983L77.157 47.4435H79.7054V39.508Z" fill="#1925AA"/>
</svg>
