<svg width="123" height="25" viewBox="0 0 123 25" fill="none" xmlns="http://www.w3.org/2000/svg">
<path d="M34.726 3.6048L33.7652 6.87554H35.6552L34.726 3.6048ZM39.5899 10.7917C39.5899 10.9594 39.5195 11.0433 39.3752 11.0433H37.0101C36.8975 11.0433 36.8166 10.9521 36.7673 10.7734L36.2957 9.09979H33.1071L32.6038 10.7734C32.5545 10.9521 32.47 11.0433 32.3609 11.0433H30.0134C29.8727 11.0433 29.7988 10.9594 29.7988 10.7917C29.7988 10.7406 29.8023 10.6969 29.8128 10.6641L33.2021 0.509085C33.2619 0.330416 33.3429 0.239258 33.4449 0.239258H36.0669C36.1796 0.239258 36.264 0.330416 36.3274 0.509085L39.5758 10.6677C39.5864 10.7005 39.5899 10.7406 39.5899 10.7953" fill="#1925AA"/>
<path d="M46.5542 11.0469H40.5606C40.3881 11.0469 40.3001 10.9557 40.3001 10.7771V0.556448C40.3001 0.377779 40.3881 0.286621 40.5606 0.286621H42.7251C42.8975 0.286621 42.9855 0.377779 42.9855 0.556448V8.58197H46.5542C46.7267 8.58197 46.8147 8.67313 46.8147 8.8518V10.7807C46.8147 10.9594 46.7267 11.0505 46.5542 11.0505" fill="#1925AA"/>
<path d="M55.8073 11.0469H47.6632C47.4908 11.0469 47.4028 10.963 47.4028 10.7953C47.4028 10.7442 47.4169 10.6859 47.4485 10.6203L51.7493 2.75153H47.8005C47.628 2.75153 47.54 2.66037 47.54 2.4817V0.556448C47.54 0.377779 47.628 0.286621 47.8005 0.286621H55.853C55.9234 0.286621 55.9868 0.334023 56.036 0.428827C56.0747 0.523631 56.0747 0.60385 56.036 0.665837L51.6754 8.58197H55.8073C55.9797 8.58197 56.0677 8.67313 56.0677 8.8518V10.7807C56.0677 10.9594 55.9797 11.0505 55.8073 11.0505" fill="#1925AA"/>
<path d="M65.8729 11.0469H63.7084C63.536 11.0469 63.448 10.9557 63.448 10.7771V6.85727H59.7561V10.7771C59.7561 10.9557 59.6681 11.0469 59.4956 11.0469H57.3312C57.1587 11.0469 57.0707 10.9557 57.0707 10.7771V0.556448C57.0707 0.377779 57.1587 0.286621 57.3312 0.286621H59.4956C59.6681 0.286621 59.7561 0.377779 59.7561 0.556448V4.39601H63.448V0.556448C63.448 0.377779 63.536 0.286621 63.7084 0.286621H65.8729C66.0454 0.286621 66.1334 0.377779 66.1334 0.556448V10.7771C66.1334 10.9557 66.0454 11.0469 65.8729 11.0469Z" fill="#1925AA"/>
<path d="M75.3329 11.0469H67.6781C67.5057 11.0469 67.4177 10.9557 67.4177 10.7771V0.556448C67.4177 0.377779 67.5021 0.286621 67.6781 0.286621H75.3329C75.5054 0.286621 75.5934 0.377779 75.5934 0.556448V2.4817C75.5934 2.66037 75.5054 2.75153 75.3329 2.75153H70.103V4.39601H74.527C74.6994 4.39601 74.7874 4.48717 74.7874 4.66584V6.59474C74.7874 6.77341 74.6994 6.86456 74.527 6.86456H70.103V8.58562H75.3329C75.5054 8.58562 75.5934 8.67678 75.5934 8.85545V10.7843C75.5934 10.963 75.5054 11.0542 75.3329 11.0542" fill="#1925AA"/>
<path d="M79.1027 11.0469H76.9383C76.7658 11.0469 76.6778 10.9557 76.6778 10.7771V0.556448C76.6778 0.377779 76.7658 0.286621 76.9383 0.286621H79.1027C79.2752 0.286621 79.3632 0.377779 79.3632 0.556448V10.7771C79.3632 10.9557 79.2752 11.0469 79.1027 11.0469Z" fill="#1925AA"/>
<path d="M91.3818 11.0469H89.3089C89.1364 11.0469 89.0484 10.9557 89.0484 10.7771V5.12163L87.4013 8.21734C87.3098 8.39601 87.2324 8.48717 87.1726 8.48717H85.3882C85.3284 8.48717 85.2509 8.39601 85.1594 8.21734L83.4982 5.12163V10.7771C83.4982 10.9557 83.4102 11.0469 83.2378 11.0469H81.1648C80.9924 11.0469 80.9044 10.9557 80.9044 10.7771V0.556448C80.9044 0.377779 80.9888 0.286621 81.1648 0.286621H83.544C83.6038 0.286621 83.6918 0.377779 83.8044 0.556448L86.2751 5.04505L88.7458 0.556448C88.8584 0.377779 88.9428 0.286621 89.0062 0.286621H91.3854C91.5578 0.286621 91.6458 0.377779 91.6458 0.556448V10.7771C91.6458 10.9557 91.5578 11.0469 91.3854 11.0469" fill="#1925AA"/>
<path d="M101.046 11.0469H93.3915C93.219 11.0469 93.131 10.9557 93.131 10.7771V0.556448C93.131 0.377779 93.2155 0.286621 93.3915 0.286621H101.046C101.219 0.286621 101.307 0.377779 101.307 0.556448V2.4817C101.307 2.66037 101.219 2.75153 101.046 2.75153H95.8164V4.39601H100.24C100.413 4.39601 100.501 4.48717 100.501 4.66584V6.59474C100.501 6.77341 100.413 6.86456 100.24 6.86456H95.8164V8.58562H101.046C101.219 8.58562 101.307 8.67678 101.307 8.85545V10.7843C101.307 10.963 101.219 11.0542 101.046 11.0542" fill="#1925AA"/>
<path d="M107.951 2.98854C107.687 2.79893 107.388 2.70412 107.05 2.70412H105.097V5.12163H107.018C107.363 5.12163 107.67 5.02682 107.934 4.83722C108.229 4.61479 108.377 4.31215 108.377 3.92199C108.377 3.53184 108.233 3.21096 107.951 2.98854ZM110.964 5.0013C110.869 5.34405 110.732 5.66128 110.552 5.94934C110.373 6.2374 110.161 6.49629 109.911 6.72236C109.662 6.94843 109.387 7.13074 109.081 7.26566L110.714 10.8062C110.784 10.963 110.717 11.0432 110.517 11.0432H108.06C107.888 11.0432 107.761 10.9521 107.68 10.7734L106.353 7.53548H105.104V10.7734C105.104 10.9521 105.016 11.0432 104.843 11.0432H102.679C102.507 11.0432 102.419 10.9521 102.419 10.7734V0.556448C102.419 0.377779 102.503 0.286621 102.679 0.286621H107.863C108.757 0.286621 109.521 0.643959 110.151 1.36228C110.791 2.07696 111.112 2.9302 111.112 3.92199C111.112 4.30121 111.062 4.66219 110.967 5.00495" fill="#1925AA"/>
<path d="M113.53 2.83901C113.174 3.2948 112.71 3.61203 112.136 3.79799C112.048 3.79799 111.992 3.78705 111.967 3.76517L111.689 3.44065C111.668 3.41148 111.654 3.38231 111.654 3.36043C111.654 3.31303 111.689 3.26927 111.756 3.22187C112.245 2.91558 112.53 2.52907 112.604 2.06599C112.308 2.02588 112.069 1.91649 111.89 1.73053C111.71 1.54457 111.622 1.3185 111.622 1.04867C111.622 0.709565 111.731 0.447031 111.946 0.264716C112.14 0.0860466 112.4 -0.00146484 112.727 -0.00146484C113.129 -0.00146484 113.445 0.133449 113.674 0.403275C113.903 0.673102 114.019 1.03773 114.019 1.50081C114.019 1.9639 113.857 2.40875 113.53 2.83901Z" fill="#1925AA"/>
<path d="M121.055 10.2412C120.273 10.872 119.281 11.1893 118.081 11.1893C116.698 11.1893 115.469 10.7772 114.389 9.95681C114.248 9.85107 114.23 9.72345 114.343 9.5776L115.501 8.06073C115.603 7.92217 115.719 7.90759 115.853 8.01333C116.504 8.53111 117.236 8.78635 118.049 8.78635C118.862 8.78635 119.284 8.48006 119.284 7.87112C119.284 7.55389 118.968 7.27678 118.338 7.03247C118.021 6.91579 117.711 6.80275 117.408 6.69337C117.102 6.58398 116.793 6.47094 116.479 6.35426C115.807 6.05891 115.304 5.72345 114.969 5.34423C114.48 4.80822 114.237 4.08625 114.237 3.17832C114.237 2.27039 114.596 1.58124 115.321 1.01242C116.053 0.443592 117.053 0.15918 118.327 0.15918C119.467 0.15918 120.527 0.487347 121.516 1.14004C121.656 1.23484 121.685 1.35517 121.593 1.50467L120.572 3.11634C120.481 3.2549 120.365 3.28042 120.221 3.19656C119.531 2.79546 118.883 2.59491 118.285 2.59491C117.521 2.59491 117.12 2.79182 117.081 3.17832C117.049 3.47367 117.377 3.75079 118.056 4.01697C118.331 4.10084 118.605 4.192 118.88 4.2868C119.154 4.38161 119.429 4.47276 119.703 4.55663C120.608 4.8848 121.255 5.31141 121.646 5.83648C122.037 6.36155 122.234 7.04341 122.234 7.87477C122.234 8.82281 121.843 9.61406 121.058 10.2449" fill="#1925AA"/>
<path d="M30.4537 17.0523L29.4929 20.323H31.3829L30.4537 17.0523ZM35.3177 24.2392C35.3177 24.4069 35.2473 24.4908 35.103 24.4908H32.7379C32.6253 24.4908 32.5443 24.3996 32.495 24.2209L32.0234 22.5473H28.8348L28.3315 24.2209C28.2822 24.3996 28.1978 24.4908 28.0887 24.4908H25.7412C25.6004 24.4908 25.5265 24.4069 25.5265 24.2392C25.5265 24.1881 25.53 24.1444 25.5406 24.1115L28.9263 13.9529C28.9861 13.7743 29.0671 13.6831 29.1691 13.6831H31.7911C31.9038 13.6831 31.9882 13.7743 32.0516 13.9529L35.3001 24.1115C35.3106 24.1444 35.3141 24.1845 35.3141 24.2392" fill="#1925AA"/>
<path d="M42.7848 23.6885C42.0035 24.3193 41.011 24.6365 39.8109 24.6365C38.4277 24.6365 37.1994 24.2245 36.1189 23.4041C35.9782 23.2983 35.9606 23.1744 36.0732 23.0249L37.2311 21.508C37.3332 21.3731 37.4493 21.3549 37.583 21.4606C38.2341 21.9784 38.9662 22.2336 39.7792 22.2336C40.5922 22.2336 41.0145 21.9273 41.0145 21.3184C41.0145 21.0012 40.6978 20.724 40.0678 20.4797C39.751 20.3631 39.4413 20.25 39.1386 20.1406C38.8325 20.0312 38.5227 19.9182 38.2095 19.8015C37.5373 19.5062 37.034 19.1707 36.6997 18.7915C36.2105 18.2555 35.9676 17.5335 35.9676 16.6256C35.9676 15.7177 36.3266 15.0285 37.0516 14.4597C37.7837 13.8909 38.7832 13.6064 40.0572 13.6064C41.1975 13.6064 42.2569 13.9346 43.2459 14.5873C43.3866 14.6821 43.4148 14.8024 43.3233 14.9519L42.3027 16.5636C42.2111 16.7022 42.095 16.7277 41.9507 16.6438C41.2609 16.2427 40.6133 16.0422 40.015 16.0422C39.2513 16.0422 38.8501 16.2354 38.8113 16.6256C38.7797 16.9209 39.107 17.1981 39.7862 17.4642C40.0607 17.5481 40.3353 17.6393 40.6098 17.7341C40.8843 17.8289 41.1588 17.92 41.4333 18.0039C42.3378 18.3321 42.9854 18.7587 43.3761 19.2837C43.7668 19.8088 43.9638 20.4907 43.9638 21.322C43.9638 22.2701 43.5732 23.0613 42.7883 23.6921" fill="#1925AA"/>
<path d="M51.1654 23.6885C50.3841 24.3193 49.3916 24.6365 48.1914 24.6365C46.8083 24.6365 45.58 24.2245 44.4995 23.4041C44.3587 23.2983 44.3412 23.1744 44.4538 23.0249L45.6117 21.508C45.7137 21.3731 45.8299 21.3549 45.9636 21.4606C46.6147 21.9784 47.3468 22.2336 48.1598 22.2336C48.9728 22.2336 49.3951 21.9273 49.3951 21.3184C49.3951 21.0012 49.0784 20.724 48.4484 20.4797C48.1316 20.3631 47.8219 20.25 47.5192 20.1406C47.213 20.0312 46.9033 19.9182 46.5901 19.8015C45.9179 19.5062 45.4146 19.1707 45.0802 18.7915C44.591 18.2555 44.3482 17.5335 44.3482 16.6256C44.3482 15.7177 44.7072 15.0285 45.4322 14.4597C46.1642 13.8909 47.1638 13.6064 48.4378 13.6064C49.5781 13.6064 50.6375 13.9346 51.6264 14.5873C51.7672 14.6821 51.7954 14.8024 51.7039 14.9519L50.6832 16.5636C50.5917 16.7022 50.4756 16.7277 50.3313 16.6438C49.6415 16.2427 48.9939 16.0422 48.3956 16.0422C47.6319 16.0422 47.2306 16.2354 47.1919 16.6256C47.1602 16.9209 47.4876 17.1981 48.1668 17.4642C48.4413 17.5481 48.7159 17.6393 48.9904 17.7341C49.2649 17.8289 49.5394 17.92 49.8139 18.0039C50.7184 18.3321 51.366 18.7587 51.7567 19.2837C52.1473 19.8088 52.3444 20.4907 52.3444 21.322C52.3444 22.2701 51.9538 23.0613 51.1689 23.6921" fill="#1925AA"/>
<path d="M60.4145 17.0851C59.8866 16.5054 59.246 16.2173 58.4928 16.2173C57.7397 16.2173 57.0991 16.509 56.5712 17.0851C56.0433 17.643 55.7793 18.3249 55.7793 19.1234C55.7793 19.922 56.0433 20.5892 56.5712 21.1471C57.0991 21.7159 57.7397 22.0004 58.4928 22.0004C59.246 22.0004 59.876 21.7159 60.4145 21.1471C60.9424 20.5892 61.2064 19.9147 61.2064 19.1234C61.2064 18.3322 60.9424 17.643 60.4145 17.0851ZM62.3502 23.1526C61.3014 24.1444 60.0168 24.6366 58.4928 24.6366C56.9689 24.6366 55.6773 24.1371 54.6179 23.1344C53.5198 22.0806 52.9708 20.7424 52.9708 19.1198C52.9708 17.4972 53.5198 16.1553 54.6179 15.0906C55.6632 14.0806 56.9548 13.5737 58.4928 13.5737C60.0309 13.5737 61.2943 14.0806 62.3502 15.0906C63.4483 16.1553 63.9973 17.4972 63.9973 19.1198C63.9973 20.7424 63.4483 22.1061 62.3502 23.1489" fill="#1925AA"/>
<path d="M73.5669 23.5134C72.6624 24.2718 71.5749 24.6511 70.3044 24.6511C68.791 24.6511 67.5099 24.1333 66.4611 23.1014C65.4229 22.0585 64.9055 20.7276 64.9055 19.105C64.9055 17.5663 65.4405 16.2682 66.5069 15.2035C67.5733 14.1278 68.8403 13.5918 70.3044 13.5918C71.4623 13.5918 72.5498 13.9674 73.5669 14.7149C73.6972 14.8097 73.7183 14.93 73.6268 15.0795L72.5146 16.8662C72.4125 17.012 72.2964 17.0339 72.1627 16.9282C72.0606 16.8662 71.9656 16.8005 71.8741 16.7386C71.7826 16.6766 71.6875 16.6109 71.5855 16.549C71.1702 16.3265 70.7408 16.2171 70.3044 16.2171C69.5935 16.2171 68.9775 16.5088 68.4602 17.085C67.9534 17.6647 67.6965 18.3393 67.6965 19.1087C67.6965 19.878 67.9463 20.5818 68.4426 21.1615C68.9423 21.7413 69.5618 22.0294 70.3044 22.0294C70.783 22.0294 71.1772 21.9455 71.494 21.7778C71.6066 21.7048 71.7192 21.6319 71.8354 21.5553C71.9515 21.4824 72.0676 21.4095 72.1803 21.3329C72.314 21.26 72.4301 21.2892 72.5322 21.4277L73.662 23.1488C73.7429 23.2764 73.7112 23.3967 73.5704 23.5134" fill="#1925AA"/>
<path d="M77.2169 24.4946H75.0524C74.8799 24.4946 74.7919 24.4035 74.7919 24.2248V14.0042C74.7919 13.8255 74.8799 13.7344 75.0524 13.7344H77.2169C77.3893 13.7344 77.4773 13.8255 77.4773 14.0042V24.2248C77.4773 24.4035 77.3893 24.4946 77.2169 24.4946Z" fill="#1925AA"/>
<path d="M83.7094 17.0523L82.7486 20.323H84.6385L83.7094 17.0523ZM88.5733 24.2392C88.5733 24.4069 88.5029 24.4908 88.3586 24.4908H85.9935C85.8809 24.4908 85.7999 24.3996 85.7507 24.2209L85.2791 22.5473H82.0904L81.5871 24.2209C81.5379 24.3996 81.4534 24.4908 81.3443 24.4908H78.9968C78.856 24.4908 78.7821 24.4069 78.7821 24.2392C78.7821 24.1881 78.7856 24.1444 78.7962 24.1115L82.1819 13.9529C82.2418 13.7743 82.3227 13.6831 82.4248 13.6831H85.0468C85.1594 13.6831 85.2439 13.7743 85.3072 13.9529L88.5557 24.1115C88.5662 24.1444 88.5698 24.1845 88.5698 24.2392" fill="#1925AA"/>
<path d="M95.5561 16.1993H93.0538V24.2248C93.0538 24.4035 92.9658 24.4946 92.7933 24.4946H90.6288C90.4564 24.4946 90.3684 24.4035 90.3684 24.2248V16.1993H87.8837C87.7112 16.1993 87.6232 16.1154 87.6232 15.9477V14.0042C87.6232 13.8255 87.7112 13.7344 87.8837 13.7344H95.5526C95.725 13.7344 95.813 13.8255 95.813 14.0042V15.9477C95.813 16.1154 95.725 16.1993 95.5526 16.1993" fill="#1925AA"/>
<path d="M99.2235 24.4946H97.0591C96.8866 24.4946 96.7986 24.4035 96.7986 24.2248V14.0042C96.7986 13.8255 96.8866 13.7344 97.0591 13.7344H99.2235C99.396 13.7344 99.484 13.8255 99.484 14.0042V24.2248C99.484 24.4035 99.396 24.4946 99.2235 24.4946Z" fill="#1925AA"/>
<path d="M108.139 17.0851C107.611 16.5054 106.971 16.2173 106.218 16.2173C105.464 16.2173 104.824 16.509 104.296 17.0851C103.768 17.643 103.504 18.3249 103.504 19.1234C103.504 19.922 103.768 20.5892 104.296 21.1471C104.824 21.7159 105.464 22.0004 106.218 22.0004C106.971 22.0004 107.601 21.7159 108.139 21.1471C108.667 20.5892 108.931 19.9147 108.931 19.1234C108.931 18.3322 108.667 17.643 108.139 17.0851ZM110.075 23.1526C109.026 24.1444 107.742 24.6366 106.218 24.6366C104.694 24.6366 103.402 24.1371 102.343 23.1344C101.245 22.0806 100.696 20.7424 100.696 19.1198C100.696 17.4972 101.245 16.1553 102.343 15.0906C103.388 14.0806 104.68 13.5737 106.218 13.5737C107.756 13.5737 109.019 14.0806 110.075 15.0906C111.173 16.1553 111.722 17.4972 111.722 19.1198C111.722 20.7424 111.173 22.1061 110.075 23.1489" fill="#1925AA"/>
<path d="M121.703 24.4946H119.721C119.64 24.4946 119.573 24.4691 119.524 24.4144L115.361 18.3798V24.2248C115.361 24.4035 115.273 24.4946 115.1 24.4946H113.119C112.946 24.4946 112.858 24.4035 112.858 24.2248V14.0042C112.858 13.8255 112.946 13.7344 113.119 13.7344H115.1C115.202 13.7344 115.283 13.7781 115.343 13.862L119.461 19.8492V14.0042C119.461 13.8255 119.545 13.7344 119.721 13.7344H121.703C121.875 13.7344 121.963 13.8255 121.963 14.0042V24.2248C121.963 24.4035 121.875 24.4946 121.703 24.4946Z" fill="#1925AA"/>
<path d="M20.4539 9.3623C23.3997 10.5838 25.441 13.6649 25.2052 17.2019C24.9483 21.0524 21.9603 24.1736 18.2437 24.469C13.8057 24.819 10.0856 21.1763 10.0856 16.6476C10.0856 14.9302 10.6241 13.3368 11.5321 12.0423L12.0354 11.3094C12.7428 10.314 13.1334 9.0633 13.0455 7.71781C12.8695 5.0159 10.7543 2.83176 8.14635 2.66038C5.09849 2.45983 2.55391 4.97214 2.55391 8.08974C2.55391 10.7041 4.34884 12.8956 6.728 13.4097C6.88638 13.4498 7.84016 13.7561 7.89999 14.9339V21.8254C7.89999 21.9712 7.78384 22.0879 7.64658 22.0879H5.62641C5.48563 22.0879 5.37301 21.9712 5.37301 21.8254V15.9366C5.36245 15.5209 4.99642 15.3751 4.99642 15.3751C2.05415 14.1426 0.0163761 11.0651 0.25218 7.53185C0.509102 3.68135 3.50065 0.560108 7.21369 0.268403C11.6517 -0.0816428 15.3753 3.56102 15.3753 8.08609C15.3753 9.80715 14.8369 11.4006 13.9218 12.6987L13.4256 13.4279C12.7217 14.4161 12.3345 15.6595 12.4155 16.9977C12.5809 19.6996 14.689 21.8947 17.2934 22.0733C20.3519 22.2848 22.907 19.7689 22.907 16.6476C22.907 14.0405 21.1262 11.8564 18.7575 11.3313C18.7575 11.3313 17.6384 11.087 17.5609 9.82173V2.86457C17.5609 2.74425 17.656 2.64944 17.7686 2.64944H19.8767C19.9929 2.64944 20.0844 2.74789 20.0844 2.86457V8.80077C20.0879 8.89557 20.1231 9.19821 20.4539 9.3623Z" fill="#1925AA"/>
</svg>
