<svg width="242" height="52" viewBox="0 0 242 52" fill="none" xmlns="http://www.w3.org/2000/svg">
<path d="M35.5303 0.889648V51.3066H50.4702V12.0766L35.5303 0.889648Z" fill="#1925AA"/>
<path d="M29.4829 5.42498V51.42H32.5892V3.08173L29.4829 5.42498Z" fill="#1925AA"/>
<path d="M23.436 51.1554H26.5423V7.35242L23.436 9.56373V51.1554Z" fill="#1925AA"/>
<path d="M17.7671 51.1554H20.8734V11.7743L17.7671 14.1334V51.1554Z" fill="#1925AA"/>
<path d="M53.293 23.5659V51.4313H68.2366V34.7718L53.293 23.5659Z" fill="#1925AA"/>
<path d="M11.7202 27.7233V51.163H14.8265V25.5085L11.7202 27.7233Z" fill="#1925AA"/>
<path d="M5.67285 51.1554H8.77912V29.9266L5.67285 32.1383V51.1554Z" fill="#1925AA"/>
<path d="M0.00390625 51.1554H3.11018V34.3486L0.00390625 36.7076V51.1554Z" fill="#1925AA"/>
<path d="M106.583 28.8571C102.149 28.8571 99.3374 26.351 99.3374 21.4873V12.0502H103.032V21.4873C103.032 24.1408 104.365 25.6144 106.731 25.6144C108.948 25.6144 110.281 24.1401 110.281 21.4873V12.0502H113.98V21.3399C113.98 26.4988 111.022 28.8571 106.583 28.8571Z" fill="#1925AA"/>
<path d="M124.724 28.8571C122.213 28.8571 119.697 27.9724 117.773 26.2036L119.845 23.6975C121.323 24.8767 122.95 25.6136 124.872 25.6136C126.35 25.6136 127.238 25.024 127.238 24.1393V23.9919C127.238 23.1071 126.649 22.665 123.839 21.928C120.584 21.0432 118.362 20.0114 118.362 16.7691C118.362 13.6727 120.729 11.7577 124.133 11.7577C126.649 11.7577 128.718 12.4947 130.343 13.8216C128.421 16.6225 128.421 16.6225 128.421 16.6225C127.093 15.5907 125.61 15.0008 124.131 15.0008C122.798 15.0008 122.059 15.5904 122.059 16.4751C122.059 17.5069 122.798 17.9494 125.609 18.6864C129.014 19.5712 130.934 20.7507 130.934 23.6979C130.934 27.0884 128.418 28.8567 124.717 28.8567L124.724 28.8571Z" fill="#1925AA"/>
<path d="M146.266 28.8571V22.0769H139.463V28.8571H135.769V12.1976H139.463V18.683H146.266V12.1976H149.965V28.8571H146.266Z" fill="#1925AA"/>
<path d="M210.138 28.8571L202.299 18.3882V28.8571H198.75V12.1976H202.149L209.992 22.8139V12.1976H213.541V28.8571H210.138Z" fill="#1925AA"/>
<path d="M138.329 51.1554L133.152 44.0804L131.23 46.1443V51.1558H127.53V34.4963H131.23V41.8661L138.032 34.4963H142.466L135.663 41.5751L142.768 51.1595L138.329 51.1554Z" fill="#1925AA"/>
<path d="M147.022 51.1554V34.496H159.449V37.7394H150.571V41.1302H158.413V44.3734H150.571V47.912H159.596V51.1554H147.022Z" fill="#1925AA"/>
<path d="M182.548 51.1554H186.098V34.496H182.548V51.1554Z" fill="#1925AA"/>
<path d="M191.241 51.1554V34.496H203.667V37.7394H194.941V41.1302H202.628V44.3734H194.941V47.912H203.811V51.1554H191.241Z" fill="#1925AA"/>
<path d="M209.382 51.1554V34.496H213.076V47.9127H221.364V51.1562L209.382 51.1554Z" fill="#1925AA"/>
<path d="M232.436 51.1554H225.928V34.496H232.436C237.761 34.496 241.314 38.182 241.314 42.7539V42.9013C241.314 47.618 237.764 51.1592 232.436 51.1592V51.1554ZM237.466 42.8975C237.466 39.9488 235.394 37.886 232.436 37.886H229.625V47.9127H232.436C235.396 47.9127 237.466 45.8485 237.466 42.9013V42.8975Z" fill="#1925AA"/>
<path d="M88.4415 25.4556C85.3314 25.4556 83.2637 23.0973 83.2637 20.2968V20.1494C83.2637 17.3481 85.1859 14.9906 88.1429 14.9906C89.7703 14.8432 91.2529 15.5805 92.2851 16.7601L94.6513 13.9588C93.0239 12.4845 90.8077 11.4527 88.1433 11.6004C82.9655 11.6004 79.273 15.5802 79.4166 20.2968C79.5663 25.1609 83.2641 28.8458 88.4418 28.6984C91.1025 28.6984 93.4684 27.5192 94.9462 25.7497L92.4351 23.3906C91.5466 24.5706 90.07 25.3082 88.4415 25.4556Z" fill="#1925AA"/>
<path d="M168.942 12.2278H172.937V28.8873H169.387V17.9763L164.656 25.0512H164.511L159.772 17.9763V28.8873H156.372V12.2278H160.215L164.652 19.1554L168.942 12.2278Z" fill="#1925AA"/>
<path d="M183.682 12.2278L176.577 28.8873H180.424L181.902 25.055H188.999L190.482 28.8873H194.326L187.228 12.2278H183.682ZM183.237 21.8123L185.454 16.5061L187.676 21.8123H183.237Z" fill="#1925AA"/>
<path d="M113.007 34.5262L105.91 51.1856H109.609L111.236 47.5H118.19L119.813 51.1856H123.512L116.414 34.5262H113.007ZM112.418 44.2581L114.635 38.8045L116.856 44.2581H112.418Z" fill="#1925AA"/>
<path d="M168.187 37.9276V41.4658H176.025V44.8567H168.187V51.1947H164.487V34.5352H177.209V37.9261L168.187 37.9276Z" fill="#1925AA"/>
<path d="M101.669 34.5262L97.8258 46.1742L93.9822 34.5262H90.4277L86.5841 46.1742L82.7404 34.5262H78.7456L84.8077 51.1856H88.507L92.2062 39.8324L96.0499 51.1856H99.5995L105.665 34.5262H101.669Z" fill="#1925AA"/>
<path d="M236.971 24.6998C238.893 22.4884 238.893 22.4884 238.893 22.4884C236.677 20.1294 236.677 20.1294 236.677 20.1294C234.9 22.0459 234.9 22.0459 234.9 22.0459L232.828 19.5398C234.161 18.8024 235.049 17.3281 235.049 15.8541C234.9 13.495 233.127 11.8745 230.76 11.8745C229.576 11.8745 228.538 12.3162 227.799 13.0536C227.06 13.7906 226.616 14.8223 226.616 16.0023C226.766 17.3288 227.505 18.3613 228.094 19.0983C226.172 19.8357 224.694 21.8996 224.839 23.9624C224.989 26.7633 227.355 29.1213 230.315 29.1213C231.943 29.1213 233.715 28.2365 234.9 26.91C236.382 28.8265 236.382 28.8265 236.382 28.8265H240.672L236.971 24.6998ZM232.976 24.5524C232.088 25.5841 231.204 26.0267 230.316 26.0267C229.132 26.0267 228.094 25.142 228.094 23.8154C227.949 23.078 228.539 22.0459 230.166 21.3085L232.976 24.5524ZM230.904 17.6248C230.46 17.1826 229.871 16.593 229.721 16.003C229.721 15.4134 230.016 14.8231 230.904 14.6761C231.643 14.6761 232.088 15.2657 232.088 16.003C232.088 16.74 231.349 17.3296 230.904 17.6248Z" fill="#1925AA"/>
</svg>
