<svg width="99" height="25" viewBox="0 0 99 25" fill="none" xmlns="http://www.w3.org/2000/svg">
<path d="M45.0022 12.0863C48.1122 11.0513 48.676 8.44129 48.6697 6.31379C48.6635 3.06129 46.3697 0.252542 39.581 0.252542L26.9072 0.250041V24.6675H39.546C46.3772 24.6675 48.8897 21.1613 48.8897 17.6488C48.8897 13.395 45.0022 12.0863 45.0022 12.0863ZM32.9222 5.56254H41.4547L41.4847 5.56879C42.4472 5.73879 43.1485 6.55754 43.1485 7.51754C43.1485 8.50129 42.3972 9.42754 41.4047 9.56254L32.926 9.57629L32.9222 5.56254ZM41.0435 18.9763H32.9222V14.89H41.2422L41.261 14.8925C42.296 15.01 43.081 15.8713 43.081 16.8925C43.081 18.0088 42.1522 18.9613 41.0435 18.9763Z" fill="#1925AA"/>
<path d="M77.2676 0.255001H98.6826L98.6701 5.5825H83.2188L83.2338 9.51875H97.1638V14.875H83.2338V19.1338H98.6876L98.6838 24.7188H77.2676" fill="#1925AA"/>
<path d="M64.8113 0.285053H51.8613V24.7113H57.8076V14.8276L64.3576 14.8213C66.2326 14.8501 67.6913 16.3851 67.6913 18.2801V24.6888L73.5113 24.6863L73.5013 16.8051C73.5013 13.1526 69.9726 12.0726 69.9726 12.0726C69.9726 12.0726 73.5801 10.9951 73.5801 6.67755C73.5801 1.3938 69.0413 0.285053 64.8113 0.285053ZM68.0576 7.86255C67.9501 8.6663 67.1476 9.53755 66.1451 9.53755L57.7863 9.54005V5.63005H66.1476C67.1476 5.63005 67.9301 6.3638 68.0576 7.33005" fill="#1925AA"/>
<path d="M23.0525 18.8088C22.9688 18.81 14.9238 18.965 12.1463 18.695C7.67625 18.2575 6.09125 14.9438 6.09125 12.2413C6.09125 8.86753 8.39 6.38753 11.95 5.92253C13.645 5.70003 22.905 5.80503 23.0038 5.80503L23.1975 5.80878L23.2175 0.253778H23.0213L12.5388 0.273777C11.3713 0.345027 9.43625 0.462527 7.45375 1.27253C5.5525 2.14503 3.895 3.48503 2.65875 5.15128C1.08375 7.27128 0.25 9.79003 0.25 12.43C0.25 13.2625 0.31625 14.0863 0.45 14.8775C1.20375 18.58 3.6325 21.6463 7.11375 23.2938C8.28875 23.8113 10.1025 24.43 13.7575 24.6363L15.7275 24.6775L23.0338 24.6838H23.2275L23.2475 18.8063" fill="#1925AA"/>
</svg>
