<svg viewbox="0 0 421 420" fill="none" xmlns="http://www.w3.org/2000/svg" class="size-71.6vw lg:size-29vw | js-footer-logo" data-v-36d22ecd><defs><rect id="plusV" x="205" width="11" height="420" class="js-plus"></rect><rect id="plusH" x="420.5" y="204.5" width="11" height="420" class="js-plus" transform="rotate(90 420.5 204.5)"></rect><path id="plus" d="M216 204.5H420.5V215.5H216V420H205V215.5H0.5V204.5H205V0H216V204.5Z"></path><path id="circle" class="js-circle" d="M210.756 34.2979C309.804 34.2979 390.098 114.592 390.098 213.64C390.098 312.688 309.804 392.981 210.756 392.981C111.708 392.981 31.4141 312.687 31.4141 213.64C31.4141 114.592 111.708 34.2979 210.756 34.2979ZM210.75 78.9922C136.385 78.9924 76.1008 139.277 76.1006 213.642C76.1006 288.007 136.385 348.292 210.75 348.292C285.115 348.292 345.4 288.007 345.4 213.642C345.4 139.277 285.115 78.9922 210.75 78.9922Z"></path><mask id="maskForPlusV" maskUnits="userSpaceOnUse"><rect width="100%" height="100%" fill="white"></rect><use href="#circle" fill="black"></use></mask><mask id="maskForPlusH" maskUnits="userSpaceOnUse"><rect width="100%" height="100%" fill="white"></rect><use href="#circle" fill="black"></use></mask><mask id="maskForCircle" maskUnits="userSpaceOnUse"><rect width="100%" height="100%" fill="white"></rect><use href="#plusV" fill="black"></use><use href="#plusH" fill="black"></use></mask></defs><use href="#plusV" fill="#E8E6E0" mask="url(#maskForPlusV)"></use><use href="#plusH" fill="#E8E6E0" mask="url(#maskForPlusH)"></use><use href="#circle" fill="#E8E6E0" mask="url(#maskForCircle)"></use></svg>