<?xml version="1.0" encoding="utf-8"?><svg xmlns="http://www.w3.org/2000/svg" xmlns:xlink="http://www.w3.org/1999/xlink"><symbol viewBox="0 0 15 10" id="arrow"><path d="m10.23 1.325 3.77 4m0 0-3.77 4m3.77-4H0" stroke="currentColor"/></symbol><symbol viewBox="0 0 20 9" id="arrow-controls"><path d="M19.223 4.188a.5.5 0 0 1 0 .707l-3.182 3.182a.5.5 0 1 1-.707-.707l2.829-2.829-2.829-2.828a.5.5 0 1 1 .707-.707l3.182 3.182ZM-.01 4.542v-.5h18.88v1H-.01v-.5Z" fill="currentColor"/></symbol><symbol fill="none" viewBox="0 0 14 18" id="chat"><path d="M.338 4.838c0-.207.168-.375.375-.375h12.574c.207 0 .375.168.375.375v9.634a.375.375 0 0 1-.375.375H.713a.375.375 0 0 1-.375-.375V4.838Z" fill="currentColor"/><path d="M7.824 14.095a.375.375 0 0 1 .294-.607h2.911c.207 0 .375.168.375.375v3.684a.375.375 0 0 1-.669.233l-2.911-3.685ZM.338.077h13.324v.958H.338V.077Z" fill="currentColor"/></symbol><symbol fill="none" viewBox="0 0 33 32" id="close"><path d="m32.16.687-30 30M.923.687l30 30" stroke="currentColor" stroke-width="1.75"/></symbol><symbol viewBox="0 0 100 101" id="loader"><path d="M100 50.59c0 27.615-22.386 50.001-50 50.001s-50-22.386-50-50 22.386-50 50-50 50 22.386 50 50Zm-90.919 0c0 22.6 18.32 40.92 40.919 40.92 22.599 0 40.919-18.32 40.919-40.92 0-22.598-18.32-40.918-40.919-40.918-22.599 0-40.919 18.32-40.919 40.919Z" fill="currentColor"/><path d="M93.968 39.04c2.425-.636 3.894-3.128 3.04-5.486A50 50 0 0 0 41.735 1.279c-2.474.414-3.922 2.919-3.285 5.344.637 2.426 3.12 3.849 5.6 3.484a40.916 40.916 0 0 1 44.131 25.769c.902 2.34 3.361 3.802 5.787 3.165Z" fill="rgba(25, 37, 170, 1)"/></symbol><symbol fill="none" style="color:#e8e6e0" viewBox="0 0 31 30" id="logo"><path d="M15.3 28.07a12.825 12.825 0 0 0 .714.001V30H15.3v-1.93Zm13.172-12.713c-.049 6.916-5.576 12.529-12.458 12.714v-3.196c5.118-.184 9.216-4.366 9.263-9.518h3.195Zm-22.427 0c.048 5.15 4.14 9.33 9.255 9.518v3.195c-6.877-.19-12.4-5.8-12.447-12.713h3.192Zm9.969-9.7v8.986h9.243c.013.206.022.414.022.624l-.002.09h-9.263v9.518c-.117.004-.235.009-.353.009-.12 0-.241-.005-.361-.009v-9.518H6.045l-.002-.09c0-.21.01-.418.022-.624H15.3V5.657c.12-.004.24-.009.361-.009.118 0 .236.005.353.01Zm14.643 8.986v.714h-2.185v-.091c0-.21-.005-.417-.015-.623h2.2Zm-27.79 0c-.01.206-.015.414-.015.623v.091H.657v-.714h2.211ZM16.014 2.46c6.704.18 12.123 5.513 12.443 12.182h-3.2a9.615 9.615 0 0 0-9.243-8.986V2.461ZM15.3 5.657a9.616 9.616 0 0 0-9.235 8.986H2.867C3.187 7.977 8.6 2.648 15.3 2.462v3.195Zm.714-3.196a13.081 13.081 0 0 0-.714 0V0h.714v2.46Z" fill="currentColor"/></symbol><symbol fill="none" viewBox="0 0 20 27" id="pen"><path d="m14.02 7.314 2.598 1.5-4.516 7.822" stroke="currentColor" stroke-width="1.5"/><rect x="11.117" y="3.611" width="4.8" height="16.675" rx="1" transform="rotate(30 11.117 3.61)" fill="currentColor"/><path fill="currentColor" d="m11.813 2.407 4.157 2.4 1.389-2.406L13.202 0zM1.303 20.609l.776 3.456L5.46 23.01l.782-1.354-4.158-2.4-.781 1.354Z"/></symbol><symbol fill="none" viewBox="0 0 18 19" id="plus"><path d="M8.13.882h1.75V18.87H8.13V.882Z" fill="currentColor"/><path d="M18 9v1.75H.012V9H18Z" fill="currentColor"/></symbol><symbol fill="none" viewBox="0 0 38 38" id="top-right-arrow"><path fill="currentColor" d="M6.596 31.887 32.044 6.439l-.707-.707L5.889 31.18z"/><path fill="currentColor" d="M32.193 16.67V5.587h-1V16.67z"/><path fill="currentColor" d="M21.106 5.583h11.081v1H21.106z"/></symbol><symbol fill="none" viewBox="0 0 10 14" id="touch-enter"><path d="M1 11.09H.5v.5H1v-.5Zm9 0L5 8.205v5.774l5-2.887Zm-9 0v.5h4.5v-1H1v.5Zm0 0h.5v-11h-1v11H1Z" fill="currentColor"/></symbol></svg>